<?xml version="1.0" encoding="utf-8"?>
<!-- Generator: Adobe Illustrator 23.0.3, SVG Export Plug-In . SVG Version: 6.00 Build 0)  -->
<svg version="1.1" id="图层_1" xmlns="http://www.w3.org/2000/svg" xmlns:xlink="http://www.w3.org/1999/xlink" x="0px" y="0px"
	 viewBox="0 0 202 41" style="enable-background:new 0 0 202 41;" xml:space="preserve">
<style type="text/css">
	.st0{fill:#A91F22;}
	.st1{fill:#8F8F8F;}
	.st2{fill:#FFFFFF;}
</style>
<g>
	<path class="st0" d="M40.3,20.1c0-3.3-2.7-6-6-6c-0.1,0-0.3,0-0.4,0c-4.1-0.2-7.4-3.4-7.7-7.5c0-0.2,0-0.4,0-0.5
		c0-1.3-0.4-2.4-1-3.4c-1.1-1.6-2.9-2.7-5-2.7c0,0,0,0,0,0c0,0,0,0,0,0c-3.3,0-6.1,2.7-6.1,6.1c0,0.2,0,0.4,0,0.6
		c-0.3,4.2-3.8,7.5-8.1,7.5v0c-3.3,0-6,2.7-6,6c0,0,0,0,0,0c0,0,0,0,0,0c0,3.3,2.7,6.1,6.1,6.1c3.3,0,6.1-2.7,6.1-6.1c0,0,0,0,0,0h0
		c0,0,0,0,0-0.1c0-4.4,3.6-8,8-8.1c0,0,0,0,0.1,0c0,0,0.1,0,0.1,0c4.3,0,7.7,3.4,8,7.5c0,0.2,0,0.4,0,0.6c0,3.3,2.7,6.1,6.1,6.1
		c3.3,0,6.1-2.7,6.1-6.1C40.3,20.2,40.3,20.2,40.3,20.1C40.3,20.2,40.3,20.1,40.3,20.1z"/>
	<path class="st1" d="M82.7,20.2c0-3.3-2.7-6.1-6.1-6.1c-3.3,0-6.1,2.7-6.1,6.1c0,0.2,0,0.4,0,0.6c-0.3,4.2-3.7,7.5-8,7.5
		c0,0-0.1,0-0.1,0c0,0,0,0-0.1,0c-4.4,0-8-3.6-8-8.1c0,0,0,0,0-0.1h0c0,0,0,0,0,0c0-3.3-2.7-6.1-6.1-6.1c0,0,0,0,0,0c0,0,0,0,0,0
		c-3.3,0-6.1,2.7-6.1,6.1c0,0.2,0,0.4,0,0.6c-0.3,4.2-3.7,7.5-8,7.5c0,0-0.1,0-0.1,0c0,0,0,0-0.1,0c-4.4,0-8-3.6-8-8.1
		c0,0,0,0,0-0.1h0c0,0,0,0,0,0c0-3.3-2.7-6.1-6.1-6.1c-3.3,0-6.1,2.7-6.1,6.1c0,0,0,0,0,0s0,0,0,0c0,3.3,2.7,6,6,6v0
		c4.3,0,7.8,3.3,8.1,7.5c0,0.2,0,0.4,0,0.6c0,3.3,2.7,6.1,6.1,6.1c0,0,0,0,0,0c0,0,0,0,0,0c2.1,0,3.9-1.1,5-2.7c0.7-1,1-2.1,1-3.4
		c0-0.2,0-0.4,0-0.5c0.3-4.1,3.6-7.3,7.7-7.5c0.1,0,0.3,0,0.4,0c0.1,0,0.2,0,0.3,0c4.1,0.2,7.4,3.5,7.7,7.5c0,0.2,0,0.4,0,0.6
		c0,3.3,2.7,6.1,6.1,6.1c0,0,0,0,0,0c0,0,0,0,0,0c2.1,0,3.9-1.1,5-2.7c0.7-1,1-2.1,1-3.4c0-0.2,0-0.4,0-0.5c0.3-4.1,3.6-7.3,7.7-7.5
		c0.1,0,0.3,0,0.4,0c3.3,0,6-2.7,6-6C82.7,20.3,82.7,20.3,82.7,20.2C82.7,20.2,82.7,20.2,82.7,20.2z"/>
	<g>
		<path class="st2" d="M201.5,19L201.5,19C201.5,19,201.5,19,201.5,19h-0.3c-0.2,0-0.5-0.1-0.7-0.2c0,0-0.3-0.2-0.4-0.5h0v-0.2v-2V8
			c0,0,0.2-1-0.8-2s-1.8-1-2.3-1h-1.1h-0.5h-12.4v0.1H183v2.3h4.4v4.9h-4.1v0.1h-0.2v2.3h4.3v6.9h3.3v-0.1h0.2v-6.7h4.2v-0.1h0.2
			v-2.3h-4.4V7.4h4.8c0.2,0,0.5,0.1,0.6,0.2c0,0,0.3,0.2,0.4,0.5v8.1v2v0.2h0c0,0.2-0.1,1.1,0.8,2c0.9,1,1.8,1,2.3,1h1.7v0h0.5v-0.1
			h0.2V19H201.5z"/>
		<path class="st2" d="M182,21.9c-0.7-0.3-0.8-1.4-0.8-1.4v-8.2V12v-0.5c0-0.9-0.8-1.6-0.8-1.6c-0.9-0.8-1.9-0.7-1.9-0.7h-2.9v0.1
			h-0.2v2.2h1.5c0.5,0,0.5,0.1,0.7,0.3c0.2,0.1,0.2,0.4,0.2,0.4v0.3v8.2l0,0.4c0,0.3-0.2,0.7-0.6,1c-0.5,0.3-1.6,0.3-1.6,0.3v0.1
			c-0.1,0-0.2,0-0.2,0v2.4c0,0,0.6,0,1.2-0.1c0.6-0.1,1.5-0.5,1.5-0.5c0.5-0.2,0.9-0.6,1.1-0.7c0,0,0.1,0,0.1-0.1
			c0.6,0.6,0.7,0.6,1.5,1c0.9,0.4,3.1,0.3,3.1,0.3h17.8v-0.1h0.2v-2.4h-17.8C182.9,22.4,182.8,22.2,182,21.9z"/>
		<path class="st2" d="M98.5,29.7c-2.1-1.5-3.5-1.7-4.9-1.7s-2.8,0.2-4.9,1.7c0,0-0.1,0.1-0.1,0.1c0,0,0,0,0,0c-2.1,1.5-2,3.8-2,3.8
			v4.1h1.5v-0.1h0.2v-4.1c0-0.6,0.4-1.7,1.4-2.5c0.1-0.1,0.2-0.2,0.4-0.3c1.4-0.9,3.4-0.9,3.4-0.9s2,0,3.4,0.9
			c0.9,0.6,1.4,1.3,1.6,1.9h-8.1v0.1h-0.2V34h8.5v3.7h1.5v-0.1h0.2v-4.1C100.5,33.5,100.6,31.2,98.5,29.7z"/>
		<path class="st2" d="M120.8,28.9h-0.2v3.7v0.3c0,0,0,1.5-1.2,2.5c-0.3,0.2-1.3,0.9-2.5,1h-2.8h-0.2h-0.4v-6.3h-1.6v0.1h-0.2v6.2
			h-0.4h-2.5c-1.5-0.1-2.6-1.1-2.6-1.1c-1.3-1-1.3-2.6-1.3-2.6v-0.3v-3.7h-1.5v0.1h-0.2v4h0c0,0.9,0.3,2.4,1.7,3.7
			c1.6,1.4,4.3,1.7,4.3,1.7h1.9h1h1.1h0.6h2.2c0,0,2.7-0.3,4.3-1.7c0,0,0,0,0,0c0,0,0.1-0.1,0.1-0.1c1.4-1.2,1.7-2.8,1.7-3.7h0v-4
			h-1.5V28.9z"/>
		<path class="st2" d="M160.9,28.4c-2.2,0-4.1,0.7-5.4,1.8c-1,0.8-1.7,1.9-1.7,3.1c0,2.6,3.1,4.7,6.9,4.7c2.2,0,4.1-0.7,5.4-1.8
			c1-0.8,1.7-1.9,1.7-3.1C167.8,30.5,164.7,28.4,160.9,28.4z M160.9,36.6c-2.8,0-5.1-1.6-5.1-3.5c0-0.9,0.5-1.7,1.4-2.4
			c0.9-0.6,2.2-1,3.6-1c2.8,0,5.1,1.6,5.1,3.5c0,0.9-0.5,1.7-1.4,2.4C163.6,36.2,162.3,36.6,160.9,36.6z"/>
		<path class="st2" d="M136.2,35.4c-0.9,0.8-2.4,1.4-4.1,1.4c-2.8,0-5.1-1.6-5.1-3.5c0-0.9,0.5-1.7,1.4-2.4c0.9-0.6,2.2-1,3.6-1
			c1.6,0,3,0.5,4,1.3L136,31c0,0,0,0,0,0l1.1-1c-1.3-0.9-3.1-1.5-5.1-1.5c-2.2,0-4.1,0.7-5.4,1.8c-1,0.8-1.7,1.9-1.7,3.1
			c0,2.6,3.1,4.7,6.9,4.7c2,0,3.8-0.6,5.1-1.5l0,0c0.1,0,0.1-0.1,0.2-0.1L136.2,35.4z"/>
		<path class="st2" d="M151,35.4c-0.9,0.8-2.4,1.3-4.1,1.3c-2.6,0-4.7-1.2-5.1-2.9v-5.1h-1.7v0.1H140v5.1c0.4,2.4,3.2,4.2,6.8,4.2
			c2.1,0,3.9-0.6,5.2-1.6l0,0c0.1,0,0.1-0.1,0.2-0.1L151,35.4z"/>
		<path class="st2" d="M182.5,29h-0.2v4.2c0,0.7-0.3,1.4-0.9,1.9c-1,0.8-2.5,1.4-4.2,1.4c-2.8,0-5.2-1.5-5.2-3.4v-4.2h-1.6V29h-0.2
			v4.2c0,2.6,3,4.7,6.8,4.7c2.2,0,4.1-0.7,5.4-1.8c1-0.8,1.7-1.9,1.7-3.1v-4.2h-1.7V29z"/>
		<path class="st2" d="M196.2,28.6c0,0-0.8-0.1-1.3-0.1v0h-5.3h-1.8v0.1h-0.2v1.3v6.5v1.4v0h7.1c0.4,0,1.3-0.1,1.3-0.1
			c1.5-0.3,2.7-0.9,3.6-1.7c1-0.8,1.6-1.8,1.6-3C201.2,30.9,199.1,29.1,196.2,28.6z M196.2,36.3c-0.5,0.1-1.3,0.1-1.3,0.1v0h-5.3
			v-6.4h5.1v0c0,0,0.8,0,1.3,0.1v0c1.9,0.5,3.3,1.7,3.3,3.2c0,0.7-0.3,1.4-0.9,2C197.8,35.6,197,36,196.2,36.3z"/>
		<polygon class="st2" points="90,7.2 90.2,7.2 90.2,3.6 86,3.6 86,3.8 85.9,3.8 85.9,7.3 90,7.3 		"/>
		<polygon class="st2" points="113,7.3 113,7.2 113.2,7.2 113.2,5 96.9,5 96.9,3.4 92.8,3.4 92.8,3.6 92.6,3.6 92.6,5.1 92.6,7.3 
			96.8,7.3 		"/>
		<polygon class="st2" points="90,15.4 90.2,15.4 90.2,9 86,9 86,9.1 85.9,9.1 85.9,15.5 90,15.5 		"/>
		<polygon class="st2" points="90,24.8 90.2,24.8 90.2,17.5 86,17.5 86,17.7 85.9,17.7 85.9,24.9 90,24.9 		"/>
		<path class="st2" d="M92.9,22.1v0.2c0.2,1.2,1.5,2.4,2.9,2.5h0.1h12.8h0.1c0.7-0.1,1.4-0.4,1.9-0.9c0.6-0.5,1-1.1,1.1-1.8V22v-4.2
			h1.1v-0.1h0.2v-2.2h-1.2v-3.5v-0.2c-0.2-1.2-1.5-2.4-2.9-2.5h-0.1H96H96C95.2,9.2,94.6,9.6,94,10c-0.6,0.5-1,1.1-1.1,1.8V12v3.4
			h-1.3v0.1h-0.2v2.2h1.5V22.1z M97.8,11.7C97.8,11.7,97.9,11.7,97.8,11.7L97.8,11.7l8.9,0v0c0,0,0,0,0.1,0c0.5,0,1,0.4,1,1h0v2.8
			h-3.3v-2.6h-4.2V13h-0.2v2.4H97v-2.9h0c0-0.3,0.1-0.5,0.3-0.7C97.4,11.7,97.6,11.7,97.8,11.7z M100.2,17.8v3.1h4.2v-0.1h0.2v-2.9
			h3.3v3.7h0c0,0.3-0.1,0.5-0.3,0.7c-0.2,0.1-0.4,0.2-0.6,0.2c0,0,0,0-0.1,0v0H98v0c0,0,0,0-0.1,0c-0.5,0-1-0.4-1-1h0v-3.6H100.2z"
			/>
		<polygon class="st2" points="141.2,7.2 141.4,7.2 141.4,5 116.3,5 116.3,5.2 116.2,5.2 116.2,7.4 141.2,7.4 		"/>
		<path class="st2" d="M141.8,24.9l-0.1-0.1h0.2l-3.8-9.3h-4l0.1,0.1H134l2.3,5.5c0,0.5-0.2,0.8-0.2,0.8c0,0.1-0.1,0.1-0.1,0.2
			c-0.2,0.1-0.4,0.1-0.4,0.1h-14h-0.3c0,0-0.6-0.2-0.7-0.6c-0.1-0.4,0-0.8,0-0.8l3.5-8h17.9v-0.1h0.2v-2.2h-26.5v0.1h-0.2v2.2h4.4
			l-3.2,7.3c-0.3,0.6-0.4,0.9-0.4,0.9c0,0.5,0,1,0,1c0.2,0.8,0.3,1,0.9,1.7c0.6,0.7,1.7,0.9,1.7,0.9h2.2h0.3h13.9h0.2h0.5
			c0.4,0,0.4,0,0.8-0.2c0.1-0.1,0.2-0.1,0.3-0.2c0.1-0.1,0.2-0.1,0.2-0.2l0.3,0.8H141.8z"/>
		<path class="st2" d="M154.7,14.1L154.7,14.1l0.2-0.1v-2.4l-2.8,0.9V7.4h2.7V7.2h0.2V5h-2.8V3.5h-3.3v0.1h-0.2V5h-3.8v0.1h-0.2v2.2
			h4v6.4l-3.6,1.2V15l-0.2,0.1v2.6l3.8-1.4v2.1v3.3c-0.1,0.2-0.2,0.4-0.3,0.5c-0.1,0.1-0.2,0.2-0.4,0.2h-2.2h-0.4v0.1h-0.2v2.3h3.4
			c0.4,0,0.8-0.1,0.8-0.1c0.6-0.1,1-0.4,1.5-0.7c0.7-0.6,1.2-1.4,1.2-2.4h0v-0.2v-6.4L154.7,14.1z"/>
		<path class="st2" d="M159.9,24.6h0.2v-0.9c0.3,0.3,1.2,1,2,1h0.4h0h3.2h7v-0.1h0.2v-2.2h-7v-1.8h6.8v-0.1h0.2v-2.2h-7v-1.4h1.8
			h1.5c0,0,0.9,0,1.7-0.7c0.1-0.1,0.3-0.2,0.4-0.4c0.8-0.9,0.9-1.8,0.9-2v-0.3h0.7v-0.1h0.2v-2.1h-0.8v-0.4c0-0.2-0.1-1.1-0.9-2
			c-0.8-0.9-1.9-0.9-1.9-0.9h-1.5v0h-2V7.4h6.8V7.2h0.2V5h-7V3.5h-3.2v0.1h-0.2V5h-5.8v0.1h-0.2v2.2h6v0.6h-5.8v0.1h-0.2v2.2h6v1
			h-5.8v0.1h-0.2v2.1h6v1.1h-5.8v0.1h-0.2v2.2h6v1.5h0v2.2h0v1.5c-0.4-0.1-1.6-0.6-2.4-1.5v-2.9h-3.4v0.1h-0.2v6.9h3.4V24.6z
			 M167.6,10.3L167.6,10.3c0.1,0,0.3,0.1,0.5,0.3c0.2,0.2,0.3,0.4,0.3,0.4v0.2h-2.6v-1H167.6z M168.4,13.5v0.5c0,0-0.1,0.2-0.3,0.4
			c-0.1,0.1-0.3,0.2-0.4,0.2h-2v-1.1H168.4z"/>
		<polygon class="st2" points="181,7.3 181.2,7.3 181.2,4.8 175.7,4.8 175.7,4.9 175.5,4.9 175.5,7.4 181,7.4 		"/>
	</g>
</g>
</svg>
